<mxfile host="app.diagrams.net" modified="2021-05-03T12:50:01.941Z" agent="5.0 (Windows NT 10.0; Win64; x64) AppleWebKit/537.36 (KHTML, like Gecko) Chrome/89.0.4389.128 Safari/537.36" etag="EsyQkLh1t2zhZFpgcv8i" version="14.6.9" type="github">
  <diagram id="C5RBs43oDa-KdzZeNtuy" name="Page-1">
    <mxGraphModel dx="1560" dy="938" grid="1" gridSize="10" guides="1" tooltips="1" connect="1" arrows="1" fold="1" page="1" pageScale="1" pageWidth="827" pageHeight="1169" math="0" shadow="0">
      <root>
        <mxCell id="WIyWlLk6GJQsqaUBKTNV-0" />
        <mxCell id="WIyWlLk6GJQsqaUBKTNV-1" parent="WIyWlLk6GJQsqaUBKTNV-0" />
        <mxCell id="cI9kNp557W3dU8Z50EUN-0" value="&lt;font size=&quot;3&quot;&gt;시작&lt;/font&gt;" style="strokeWidth=2;html=1;shape=mxgraph.flowchart.terminator;whiteSpace=wrap;" vertex="1" parent="WIyWlLk6GJQsqaUBKTNV-1">
          <mxGeometry x="147" y="80" width="202" height="60" as="geometry" />
        </mxCell>
        <mxCell id="cI9kNp557W3dU8Z50EUN-3" value="영상에서 찾고자 하는 얼굴을 카메라에 촬영해&lt;br&gt;&amp;nbsp;데이터셋처리" style="rounded=0;whiteSpace=wrap;html=1;" vertex="1" parent="WIyWlLk6GJQsqaUBKTNV-1">
          <mxGeometry x="80" y="170" width="336" height="60" as="geometry" />
        </mxCell>
        <mxCell id="cI9kNp557W3dU8Z50EUN-4" value="얼굴 트레이닝" style="rounded=0;whiteSpace=wrap;html=1;" vertex="1" parent="WIyWlLk6GJQsqaUBKTNV-1">
          <mxGeometry x="80" y="260" width="336" height="60" as="geometry" />
        </mxCell>
        <mxCell id="cI9kNp557W3dU8Z50EUN-5" value="trainer2.yml" style="shape=document;whiteSpace=wrap;html=1;boundedLbl=1;" vertex="1" parent="WIyWlLk6GJQsqaUBKTNV-1">
          <mxGeometry x="80" y="350" width="336" height="80" as="geometry" />
        </mxCell>
        <mxCell id="cI9kNp557W3dU8Z50EUN-6" value="사진에서 몸, 얼굴을 detect했는가?" style="strokeWidth=2;html=1;shape=mxgraph.flowchart.decision;whiteSpace=wrap;" vertex="1" parent="WIyWlLk6GJQsqaUBKTNV-1">
          <mxGeometry x="75" y="580" width="346" height="100" as="geometry" />
        </mxCell>
        <mxCell id="cI9kNp557W3dU8Z50EUN-7" value="사진에서 몸, 얼굴을 인식한다" style="rounded=0;whiteSpace=wrap;html=1;" vertex="1" parent="WIyWlLk6GJQsqaUBKTNV-1">
          <mxGeometry x="80" y="480" width="336" height="60" as="geometry" />
        </mxCell>
        <mxCell id="cI9kNp557W3dU8Z50EUN-8" value="사진 속 사람이 training한 얼굴과 55%이상으로&lt;br&gt;일치하는가?" style="strokeWidth=2;html=1;shape=mxgraph.flowchart.decision;whiteSpace=wrap;" vertex="1" parent="WIyWlLk6GJQsqaUBKTNV-1">
          <mxGeometry x="75" y="730" width="346" height="100" as="geometry" />
        </mxCell>
        <mxCell id="cI9kNp557W3dU8Z50EUN-10" value="body 모자이크" style="rounded=0;whiteSpace=wrap;html=1;" vertex="1" parent="WIyWlLk6GJQsqaUBKTNV-1">
          <mxGeometry x="480" y="890" width="336" height="60" as="geometry" />
        </mxCell>
        <mxCell id="cI9kNp557W3dU8Z50EUN-11" value="해당 사람의 이름과 정확도를 출력해준다" style="rounded=0;whiteSpace=wrap;html=1;" vertex="1" parent="WIyWlLk6GJQsqaUBKTNV-1">
          <mxGeometry x="80" y="890" width="336" height="60" as="geometry" />
        </mxCell>
        <mxCell id="cI9kNp557W3dU8Z50EUN-12" value="&lt;font size=&quot;3&quot;&gt;종료&lt;/font&gt;" style="strokeWidth=2;html=1;shape=mxgraph.flowchart.terminator;whiteSpace=wrap;" vertex="1" parent="WIyWlLk6GJQsqaUBKTNV-1">
          <mxGeometry x="147" y="1010" width="202" height="60" as="geometry" />
        </mxCell>
        <mxCell id="cI9kNp557W3dU8Z50EUN-13" value="" style="endArrow=classic;html=1;entryX=0.5;entryY=0;entryDx=0;entryDy=0;" edge="1" parent="WIyWlLk6GJQsqaUBKTNV-1" target="cI9kNp557W3dU8Z50EUN-3">
          <mxGeometry width="50" height="50" relative="1" as="geometry">
            <mxPoint x="248" y="140" as="sourcePoint" />
            <mxPoint x="416" y="160" as="targetPoint" />
          </mxGeometry>
        </mxCell>
        <mxCell id="cI9kNp557W3dU8Z50EUN-16" value="" style="endArrow=classic;html=1;" edge="1" parent="WIyWlLk6GJQsqaUBKTNV-1" source="cI9kNp557W3dU8Z50EUN-3">
          <mxGeometry width="50" height="50" relative="1" as="geometry">
            <mxPoint x="248" y="280" as="sourcePoint" />
            <mxPoint x="248" y="260" as="targetPoint" />
          </mxGeometry>
        </mxCell>
        <mxCell id="cI9kNp557W3dU8Z50EUN-17" value="" style="endArrow=classic;html=1;" edge="1" parent="WIyWlLk6GJQsqaUBKTNV-1" source="cI9kNp557W3dU8Z50EUN-4">
          <mxGeometry width="50" height="50" relative="1" as="geometry">
            <mxPoint x="248" y="370" as="sourcePoint" />
            <mxPoint x="248" y="350" as="targetPoint" />
          </mxGeometry>
        </mxCell>
        <mxCell id="cI9kNp557W3dU8Z50EUN-19" value="" style="endArrow=classic;html=1;exitX=0.5;exitY=0.875;exitDx=0;exitDy=0;exitPerimeter=0;" edge="1" parent="WIyWlLk6GJQsqaUBKTNV-1" source="cI9kNp557W3dU8Z50EUN-5">
          <mxGeometry width="50" height="50" relative="1" as="geometry">
            <mxPoint x="248" y="480" as="sourcePoint" />
            <mxPoint x="248" y="480" as="targetPoint" />
          </mxGeometry>
        </mxCell>
        <mxCell id="cI9kNp557W3dU8Z50EUN-20" value="" style="endArrow=classic;html=1;" edge="1" parent="WIyWlLk6GJQsqaUBKTNV-1" source="cI9kNp557W3dU8Z50EUN-7">
          <mxGeometry width="50" height="50" relative="1" as="geometry">
            <mxPoint x="248" y="590" as="sourcePoint" />
            <mxPoint x="248" y="580" as="targetPoint" />
          </mxGeometry>
        </mxCell>
        <mxCell id="cI9kNp557W3dU8Z50EUN-21" value="" style="endArrow=classic;html=1;startArrow=none;" edge="1" parent="WIyWlLk6GJQsqaUBKTNV-1" source="cI9kNp557W3dU8Z50EUN-31">
          <mxGeometry width="50" height="50" relative="1" as="geometry">
            <mxPoint x="248" y="730" as="sourcePoint" />
            <mxPoint x="248" y="730" as="targetPoint" />
          </mxGeometry>
        </mxCell>
        <mxCell id="cI9kNp557W3dU8Z50EUN-22" value="" style="endArrow=classic;html=1;startArrow=none;" edge="1" parent="WIyWlLk6GJQsqaUBKTNV-1" source="cI9kNp557W3dU8Z50EUN-40">
          <mxGeometry width="50" height="50" relative="1" as="geometry">
            <mxPoint x="248" y="880" as="sourcePoint" />
            <mxPoint x="248" y="890" as="targetPoint" />
          </mxGeometry>
        </mxCell>
        <mxCell id="cI9kNp557W3dU8Z50EUN-23" value="" style="endArrow=classic;html=1;entryX=0.5;entryY=0;entryDx=0;entryDy=0;entryPerimeter=0;" edge="1" parent="WIyWlLk6GJQsqaUBKTNV-1" source="cI9kNp557W3dU8Z50EUN-11" target="cI9kNp557W3dU8Z50EUN-12">
          <mxGeometry width="50" height="50" relative="1" as="geometry">
            <mxPoint x="248" y="1000" as="sourcePoint" />
            <mxPoint x="248" y="1000" as="targetPoint" />
          </mxGeometry>
        </mxCell>
        <mxCell id="cI9kNp557W3dU8Z50EUN-27" value="" style="edgeStyle=segmentEdgeStyle;endArrow=classic;html=1;entryX=0.5;entryY=0;entryDx=0;entryDy=0;" edge="1" parent="WIyWlLk6GJQsqaUBKTNV-1" target="cI9kNp557W3dU8Z50EUN-10">
          <mxGeometry width="50" height="50" relative="1" as="geometry">
            <mxPoint x="421" y="780" as="sourcePoint" />
            <mxPoint x="471" y="730" as="targetPoint" />
          </mxGeometry>
        </mxCell>
        <mxCell id="cI9kNp557W3dU8Z50EUN-29" value="" style="edgeStyle=segmentEdgeStyle;endArrow=classic;html=1;" edge="1" parent="WIyWlLk6GJQsqaUBKTNV-1">
          <mxGeometry width="50" height="50" relative="1" as="geometry">
            <mxPoint x="642" y="950" as="sourcePoint" />
            <mxPoint x="242" y="990" as="targetPoint" />
            <Array as="points">
              <mxPoint x="642" y="980" />
              <mxPoint x="632" y="980" />
              <mxPoint x="632" y="990" />
            </Array>
          </mxGeometry>
        </mxCell>
        <mxCell id="cI9kNp557W3dU8Z50EUN-30" value="" style="edgeStyle=elbowEdgeStyle;elbow=horizontal;endArrow=classic;html=1;entryX=0;entryY=0.5;entryDx=0;entryDy=0;exitX=0;exitY=0.5;exitDx=0;exitDy=0;exitPerimeter=0;" edge="1" parent="WIyWlLk6GJQsqaUBKTNV-1" source="cI9kNp557W3dU8Z50EUN-6" target="cI9kNp557W3dU8Z50EUN-7">
          <mxGeometry width="50" height="50" relative="1" as="geometry">
            <mxPoint x="69" y="780" as="sourcePoint" />
            <mxPoint x="132" y="710" as="targetPoint" />
            <Array as="points">
              <mxPoint x="12" y="700" />
            </Array>
          </mxGeometry>
        </mxCell>
        <mxCell id="cI9kNp557W3dU8Z50EUN-33" value="" style="edgeStyle=orthogonalEdgeStyle;rounded=0;orthogonalLoop=1;jettySize=auto;html=1;" edge="1" parent="WIyWlLk6GJQsqaUBKTNV-1" source="cI9kNp557W3dU8Z50EUN-31" target="cI9kNp557W3dU8Z50EUN-8">
          <mxGeometry relative="1" as="geometry" />
        </mxCell>
        <mxCell id="cI9kNp557W3dU8Z50EUN-34" value="" style="edgeStyle=orthogonalEdgeStyle;rounded=0;orthogonalLoop=1;jettySize=auto;html=1;" edge="1" parent="WIyWlLk6GJQsqaUBKTNV-1" source="cI9kNp557W3dU8Z50EUN-31" target="cI9kNp557W3dU8Z50EUN-8">
          <mxGeometry relative="1" as="geometry" />
        </mxCell>
        <mxCell id="cI9kNp557W3dU8Z50EUN-31" value="Yes" style="text;html=1;resizable=0;autosize=1;align=center;verticalAlign=middle;points=[];fillColor=none;strokeColor=none;rounded=0;" vertex="1" parent="WIyWlLk6GJQsqaUBKTNV-1">
          <mxGeometry x="233" y="690" width="30" height="20" as="geometry" />
        </mxCell>
        <mxCell id="cI9kNp557W3dU8Z50EUN-32" value="" style="endArrow=none;html=1;" edge="1" parent="WIyWlLk6GJQsqaUBKTNV-1" source="cI9kNp557W3dU8Z50EUN-6" target="cI9kNp557W3dU8Z50EUN-31">
          <mxGeometry width="50" height="50" relative="1" as="geometry">
            <mxPoint x="248" y="680" as="sourcePoint" />
            <mxPoint x="248" y="730" as="targetPoint" />
          </mxGeometry>
        </mxCell>
        <mxCell id="cI9kNp557W3dU8Z50EUN-35" value="No" style="text;html=1;resizable=0;autosize=1;align=center;verticalAlign=middle;points=[];fillColor=none;strokeColor=none;rounded=0;" vertex="1" parent="WIyWlLk6GJQsqaUBKTNV-1">
          <mxGeometry x="10" y="560" width="30" height="20" as="geometry" />
        </mxCell>
        <mxCell id="cI9kNp557W3dU8Z50EUN-39" value="No" style="text;html=1;resizable=0;autosize=1;align=center;verticalAlign=middle;points=[];fillColor=none;strokeColor=none;rounded=0;" vertex="1" parent="WIyWlLk6GJQsqaUBKTNV-1">
          <mxGeometry x="520" y="750" width="30" height="20" as="geometry" />
        </mxCell>
        <mxCell id="cI9kNp557W3dU8Z50EUN-40" value="Yes" style="text;html=1;resizable=0;autosize=1;align=center;verticalAlign=middle;points=[];fillColor=none;strokeColor=none;rounded=0;" vertex="1" parent="WIyWlLk6GJQsqaUBKTNV-1">
          <mxGeometry x="233" y="850" width="30" height="20" as="geometry" />
        </mxCell>
        <mxCell id="cI9kNp557W3dU8Z50EUN-41" value="" style="endArrow=none;html=1;" edge="1" parent="WIyWlLk6GJQsqaUBKTNV-1" source="cI9kNp557W3dU8Z50EUN-8" target="cI9kNp557W3dU8Z50EUN-40">
          <mxGeometry width="50" height="50" relative="1" as="geometry">
            <mxPoint x="248" y="830" as="sourcePoint" />
            <mxPoint x="248" y="890" as="targetPoint" />
          </mxGeometry>
        </mxCell>
      </root>
    </mxGraphModel>
  </diagram>
</mxfile>
